<svg xmlns="http://www.w3.org/2000/svg" viewBox="0 0 316 212" width="316" height="212" style="background-color: transparent;"><defs><style>@import url('https://fonts.googleapis.com/css2?family=Caveat+Brush&amp;family=Source+Code+Pro&amp;family=Source+Sans+Pro&amp;family=Crimson+Pro&amp;display=block');</style></defs><g id="585c488e-1298-4fe8-2ffd-a208e02ef21e_svg" class="tl-centered-g" transform="translate(30.00, 69.00) rotate(0.00, 19.00, 62.50)"><g opacity="1"><path d="M3.59,-1.08 Q5.24,3.31 6.28,6.25 T8.30,12.76 10.73,21.13 13.84,30.85 17.31,41.96 20.55,53.81 23.42,65.28 26.09,75.60 28.44,84.91 30.55,93.19 32.57,99.88 35.34,107.46 38.56,114.76 41.41,120.50 42.92,124.11 42.95,125.73 42.46,127.27 41.50,128.58 40.17,129.51 38.62,129.96 37.00,129.90 35.49,129.33 34.24,128.30 33.38,126.92 33.01,125.35 33.16,123.74 33.82,122.26 34.91,121.06 36.33,120.28 37.92,120.00 39.52,120.24 40.97,120.97 42.10,122.13 42.80,123.59 43.00,125.19 42.67,126.78 41.86,128.18 40.64,129.25 39.15,129.87 37.54,129.98 35.97,129.57 34.62,128.68 33.62,127.41 33.22,126.69 32.01,123.10 30.30,116.79 28.82,109.39 27.03,101.34 25.48,94.43 23.56,86.19 21.06,76.96 18.17,66.67 15.04,55.42 11.48,43.96 7.50,33.14 3.58,23.42 0.60,15.22 -1.51,8.75 -3.07,3.36 -3.67,0.63 -3.71,-0.26 -3.54,-1.15 -3.17,-1.96 -2.60,-2.66 -1.89,-3.21 -1.07,-3.57 -0.19,-3.72 0.71,-3.65 1.56,-3.38 2.33,-2.91 2.95,-2.26 3.41,-1.49 Z" fill="#eb8b35" stroke="#eb8b35" stroke-width="2.5" stroke-linejoin="round" stroke-linecap="round" pointer-events="none"/></g></g><g id="64e8ab3d-7a77-4d92-1087-a649ce00421c_svg" class="tl-centered-g" transform="translate(16.00, 16.00) rotate(0.00, 103.50, 43.00)"><g opacity="1"><path d="M-1.48,82.82 Q5.24,79.72 8.70,78.20 T17.06,74.82 27.10,70.88 37.73,66.31 50.35,60.68 64.52,54.45 79.73,47.67 95.55,40.79 111.70,34.08 127.98,27.26 143.47,20.81 157.67,15.22 170.23,10.56 180.97,6.64 189.33,3.52 199.60,-0.29 206.65,-2.73 207.54,-2.70 208.37,-2.38 209.06,-1.82 209.54,-1.07 209.74,-0.20 209.66,0.69 209.31,1.50 208.71,2.16 207.93,2.59 207.05,2.75 206.17,2.62 205.38,2.22 204.75,1.59 204.36,0.79 204.25,-0.10 204.43,-0.97 204.87,-1.74 205.54,-2.33 206.36,-2.68 207.25,-2.74 208.11,-2.52 208.86,-2.03 209.41,-1.33 209.71,-0.50 209.72,0.40 209.45,1.24 208.93,1.96 208.20,2.48 207.80,2.67 201.26,4.69 190.97,8.03 182.56,11.02 171.86,14.94 159.39,19.58 145.30,25.17 129.83,31.65 113.56,38.53 97.51,45.28 81.79,52.24 66.63,59.15 52.58,65.55 40.04,71.46 29.43,76.43 19.65,80.83 11.57,84.46 4.83,87.59 1.08,89.31 0.26,89.47 -0.58,89.43 -1.38,89.19 -2.11,88.77 -2.71,88.18 -3.15,87.47 -3.41,86.67 -3.48,85.84 -3.34,85.01 -3.00,84.24 -2.49,83.57 -1.84,83.05 Z" fill="#eb8b35" stroke="#eb8b35" stroke-width="2.5" stroke-linejoin="round" stroke-linecap="round" pointer-events="none"/></g></g><g id="dcf276c9-1a99-40ef-3047-ef66cc12a87a_svg" class="tl-centered-g" transform="translate(70.00, 110.00) rotate(0.00, 22.50, 6.00)"><g opacity="1"><path d="M-1.54,6.36 Q3.40,5.09 7.77,3.50 T17.43,0.36 27.29,-2.36 35.38,-4.36 41.68,-5.57 45.43,-5.90 47.29,-5.45 48.91,-4.43 50.13,-2.95 50.80,-1.16 50.87,0.75 50.32,2.59 49.22,4.15 47.67,5.28 45.84,5.85 43.93,5.82 42.13,5.17 40.63,3.98 39.59,2.38 39.11,0.53 39.25,-1.38 39.99,-3.15 41.26,-4.58 42.92,-5.54 44.79,-5.91 46.69,-5.67 48.41,-4.83 49.78,-3.49 50.64,-1.78 50.91,0.11 50.57,2.00 49.64,3.67 48.22,4.96 46.47,5.73 45.53,5.97 43.19,6.10 38.04,6.64 30.63,8.20 21.11,10.95 11.31,14.38 3.99,16.93 0.84,17.75 -0.56,17.78 -1.93,17.48 -3.18,16.86 -4.25,15.96 -5.07,14.82 -5.60,13.53 -5.81,12.14 -5.67,10.75 -5.21,9.43 -4.44,8.26 -3.42,7.30 -2.19,6.62 Z" fill="#eb8b35" stroke="#eb8b35" stroke-width="2.5" stroke-linejoin="round" stroke-linecap="round" pointer-events="none"/></g></g><g id="be9b1b63-35c9-4d91-1ec9-e84f5c894c86_svg" class="tl-centered-g" transform="translate(114.00, 78.00) rotate(0.00, 93.00, 59.00)"><g opacity="1"><path d="M80.95,7.30 Q78.26,6.91 75.02,6.84 T68.78,6.85 62.07,6.95 54.78,6.99 48.07,7.74 41.77,9.05 35.64,10.17 29.20,12.07 23.54,15.27 18.28,19.85 13.60,24.86 10.85,29.69 9.23,34.97 8.24,40.75 7.63,47.24 7.53,53.64 7.90,59.99 9.10,66.94 11.25,74.12 13.70,80.75 17.20,87.16 21.53,92.63 25.81,96.52 30.90,100.30 36.54,104.14 42.97,107.52 49.89,109.71 56.10,110.55 61.07,108.07 64.10,101.59 65.31,94.82 65.84,88.17 66.14,80.47 65.59,73.18 63.34,67.35 58.79,63.17 53.01,61.29 47.02,62.17 44.75,60.31 43.87,54.44 45.60,51.59 55.47,52.22 65.75,52.94 74.48,52.97 84.69,52.35 96.40,51.03 108.42,49.08 120.46,46.74 132.31,44.37 142.89,42.20 152.71,39.93 161.45,37.56 168.67,35.21 175.75,32.15 182.16,29.27 185.37,28.14 186.63,28.14 187.83,28.55 188.84,29.31 189.55,30.36 189.89,31.58 189.82,32.84 189.35,34.02 188.53,34.98 187.45,35.63 186.21,35.90 184.95,35.77 183.81,35.24 182.89,34.37 182.30,33.25 182.09,32.00 182.30,30.75 182.89,29.63 183.81,28.76 184.95,28.23 186.21,28.10 187.45,28.37 188.53,29.02 189.35,29.98 189.82,31.16 189.89,32.42 189.55,33.64 188.84,34.69 187.83,35.45 187.26,35.75 184.86,36.41 178.06,38.22 170.25,40.33 162.82,42.48 153.95,45.01 144.06,47.53 133.55,50.01 121.79,52.81 109.73,55.76 97.57,58.55 85.78,60.94 75.30,62.99 66.04,64.60 55.41,65.73 44.19,66.13 36.34,62.55 35.60,54.50 40.58,48.53 46.40,47.04 52.59,47.20 59.46,48.59 66.81,51.87 72.42,56.57 76.06,62.20 78.40,68.80 79.45,76.33 79.73,84.40 79.63,92.75 78.87,100.74 77.49,107.83 75.62,113.77 72.14,118.92 67.11,123.05 61.53,124.92 55.14,125.13 48.08,124.22 40.49,122.08 33.81,119.48 28.33,116.41 22.48,112.53 17.01,108.45 12.56,104.43 8.92,100.21 4.90,95.03 0.92,88.53 -1.71,82.02 -3.84,75.59 -5.79,68.45 -7.06,61.66 -7.50,55.57 -7.49,49.63 -7.29,43.53 -6.26,36.46 -4.57,28.97 -2.14,22.10 1.27,16.18 5.28,11.40 9.88,7.33 14.46,3.61 20.07,0.24 26.42,-2.34 32.08,-3.82 37.88,-4.79 44.10,-5.88 50.52,-6.74 57.43,-6.99 64.17,-6.92 70.44,-6.75 77.02,-6.22 81.71,-5.55 83.79,-5.08 85.19,-4.48 86.41,-3.56 87.37,-2.37 88.02,-0.98 88.32,0.52 88.25,2.04 87.82,3.51 87.05,4.83 85.99,5.93 84.69,6.74 83.24,7.22 81.72,7.33 Z" fill="#eb8b35" stroke="#eb8b35" stroke-width="2.5" stroke-linejoin="round" stroke-linecap="round" pointer-events="none"/></g></g></svg>