<?xml version="1.0" encoding="UTF-8"?>
<svg xmlns="http://www.w3.org/2000/svg" xmlns:xlink="http://www.w3.org/1999/xlink" width="64px" height="64px" viewBox="0 0 64 64" version="1.1">
<g id="surface1">
<path style=" stroke:none;fill-rule:nonzero;fill:rgb(80.392157%,40.392157%,60%);fill-opacity:1;" d="M 55.070312 35.628906 C 52.84375 35.640625 50.910156 36.175781 49.289062 36.96875 C 48.695312 35.792969 48.097656 34.742188 47.996094 33.972656 C 47.878906 33.074219 47.738281 32.527344 47.878906 31.453125 C 48.015625 30.382812 48.648438 28.855469 48.636719 28.738281 C 48.625 28.621094 48.496094 28.074219 47.214844 28.0625 C 45.929688 28.050781 44.824219 28.308594 44.695312 28.644531 C 44.566406 28.984375 44.320312 29.753906 44.160156 30.546875 C 43.9375 31.710938 41.59375 35.875 40.253906 38.054688 C 39.820312 37.203125 39.449219 36.457031 39.367188 35.863281 C 39.25 34.964844 39.109375 34.417969 39.25 33.34375 C 39.390625 32.269531 40.019531 30.742188 40.007812 30.628906 C 39.996094 30.511719 39.867188 29.960938 38.585938 29.953125 C 37.304688 29.941406 36.195312 30.195312 36.070312 30.535156 C 35.941406 30.871094 35.800781 31.664062 35.53125 32.433594 C 35.265625 33.203125 32.152344 40.152344 31.335938 41.945312 C 30.914062 42.867188 30.554688 43.601562 30.296875 44.101562 C 30.296875 44.101562 30.285156 44.136719 30.25 44.195312 C 30.03125 44.628906 29.902344 44.859375 29.902344 44.859375 C 29.902344 44.859375 29.902344 44.859375 29.902344 44.871094 C 29.726562 45.1875 29.539062 45.480469 29.445312 45.480469 C 29.378906 45.480469 29.25 44.640625 29.46875 43.496094 C 29.9375 41.085938 31.042969 37.332031 31.03125 37.203125 C 31.03125 37.132812 31.242188 36.480469 30.308594 36.140625 C 29.398438 35.804688 29.074219 36.363281 28.992188 36.363281 C 28.910156 36.363281 28.851562 36.5625 28.851562 36.5625 C 28.851562 36.5625 29.867188 32.339844 26.917969 32.339844 C 25.074219 32.339844 22.535156 34.359375 21.273438 36.175781 C 20.480469 36.609375 18.792969 37.527344 16.984375 38.519531 C 16.296875 38.902344 15.585938 39.289062 14.921875 39.648438 C 14.875 39.605469 14.828125 39.546875 14.78125 39.5 C 11.214844 35.6875 4.617188 32.992188 4.894531 27.875 C 5 26.011719 5.640625 21.113281 17.566406 15.167969 C 27.382812 10.332031 35.195312 11.671875 36.546875 14.644531 C 38.480469 18.886719 32.363281 26.769531 22.21875 27.910156 C 18.347656 28.34375 16.320312 26.851562 15.808594 26.289062 C 15.269531 25.707031 15.191406 25.671875 14.992188 25.789062 C 14.664062 25.964844 14.875 26.488281 14.992188 26.792969 C 15.292969 27.585938 16.542969 28.984375 18.652344 29.671875 C 20.515625 30.277344 25.050781 30.617188 30.542969 28.492188 C 36.6875 26.117188 41.488281 19.507812 40.078125 13.96875 C 38.667969 8.351562 29.34375 6.496094 20.515625 9.632812 C 15.269531 11.496094 9.582031 14.433594 5.492188 18.257812 C 0.628906 22.804688 -0.140625 26.757812 0.175781 28.414062 C 1.304688 34.289062 9.40625 38.113281 12.648438 40.945312 C 12.484375 41.039062 12.332031 41.117188 12.207031 41.1875 C 10.585938 41.992188 4.40625 45.222656 2.867188 48.636719 C 1.117188 52.507812 3.148438 55.28125 4.488281 55.65625 C 8.648438 56.808594 12.929688 54.734375 15.226562 51.308594 C 17.519531 47.878906 17.242188 43.425781 16.179688 41.386719 C 16.167969 41.363281 16.15625 41.339844 16.132812 41.316406 C 16.554688 41.074219 16.984375 40.816406 17.40625 40.570312 C 18.234375 40.082031 19.046875 39.628906 19.746094 39.253906 C 19.351562 40.339844 19.058594 41.632812 18.921875 43.496094 C 18.746094 45.6875 19.644531 48.535156 20.820312 49.652344 C 21.34375 50.140625 21.960938 50.152344 22.359375 50.152344 C 23.734375 50.152344 24.351562 49.011719 25.039062 47.660156 C 25.878906 46.003906 26.636719 44.082031 26.636719 44.082031 C 26.636719 44.082031 25.691406 49.28125 28.257812 49.28125 C 29.191406 49.28125 30.136719 48.066406 30.554688 47.449219 L 30.554688 47.460938 C 30.554688 47.460938 30.578125 47.425781 30.625 47.34375 C 30.71875 47.191406 30.777344 47.097656 30.777344 47.097656 L 30.777344 47.074219 C 31.148438 46.421875 31.988281 44.941406 33.234375 42.484375 C 34.84375 39.3125 36.394531 35.347656 36.394531 35.347656 C 36.394531 35.347656 36.535156 36.316406 37.011719 37.925781 C 37.292969 38.871094 37.875 39.90625 38.339844 40.910156 C 37.96875 41.433594 37.734375 41.726562 37.734375 41.726562 C 37.734375 41.726562 37.734375 41.726562 37.746094 41.738281 C 37.445312 42.132812 37.117188 42.566406 36.757812 42.984375 C 35.484375 44.5 33.96875 46.238281 33.761719 46.738281 C 33.515625 47.332031 33.574219 47.765625 34.039062 48.113281 C 34.378906 48.371094 34.984375 48.40625 35.601562 48.371094 C 36.746094 48.289062 37.550781 48.007812 37.945312 47.832031 C 38.5625 47.613281 39.285156 47.273438 39.960938 46.773438 C 41.210938 45.851562 41.96875 44.535156 41.898438 42.796875 C 41.863281 41.84375 41.546875 40.886719 41.164062 39.988281 C 41.28125 39.824219 41.382812 39.660156 41.5 39.5 C 43.472656 36.621094 45 33.460938 45 33.460938 C 45 33.460938 45.136719 34.425781 45.617188 36.035156 C 45.847656 36.851562 46.328125 37.738281 46.746094 38.601562 C 44.894531 40.105469 43.75 41.855469 43.34375 42.996094 C 42.609375 45.117188 43.179688 46.074219 44.265625 46.296875 C 44.753906 46.398438 45.453125 46.167969 45.964844 45.945312 C 46.617188 45.734375 47.386719 45.375 48.121094 44.835938 C 49.371094 43.917969 50.570312 42.632812 50.5 40.898438 C 50.464844 40.105469 50.253906 39.324219 49.964844 38.566406 C 51.539062 37.914062 53.566406 37.550781 56.15625 37.855469 C 61.703125 38.507812 62.800781 41.96875 62.589844 43.425781 C 62.378906 44.882812 61.214844 45.675781 60.828125 45.921875 C 60.445312 46.167969 60.316406 46.25 60.351562 46.421875 C 60.398438 46.679688 60.585938 46.667969 60.910156 46.621094 C 61.367188 46.539062 63.824219 45.445312 63.929688 42.761719 C 64.105469 39.335938 60.839844 35.59375 55.070312 35.628906 Z M 12.265625 50.058594 C 10.421875 52.066406 7.855469 52.824219 6.75 52.183594 C 5.5625 51.496094 6.027344 48.535156 8.289062 46.410156 C 9.664062 45.117188 11.4375 43.917969 12.613281 43.183594 C 12.882812 43.019531 13.277344 42.785156 13.757812 42.496094 C 13.835938 42.449219 13.882812 42.425781 13.882812 42.425781 C 13.976562 42.367188 14.070312 42.308594 14.164062 42.25 C 14.992188 45.28125 14.199219 47.949219 12.265625 50.058594 Z M 25.671875 40.945312 C 25.027344 42.507812 23.6875 46.503906 22.871094 46.285156 C 22.171875 46.097656 21.742188 43.066406 22.730469 40.070312 C 23.234375 38.566406 24.292969 36.769531 24.914062 36.070312 C 25.914062 34.953125 27.023438 34.578125 27.289062 35.035156 C 27.628906 35.628906 26.066406 39.964844 25.671875 40.945312 Z M 36.734375 46.238281 C 36.464844 46.375 36.207031 46.46875 36.09375 46.398438 C 36.011719 46.351562 36.207031 46.167969 36.207031 46.167969 C 36.207031 46.167969 37.59375 44.675781 38.144531 44 C 38.457031 43.601562 38.832031 43.136719 39.226562 42.609375 L 39.226562 42.761719 C 39.226562 44.546875 37.503906 45.746094 36.734375 46.238281 Z M 45.265625 44.289062 C 45.066406 44.148438 45.101562 43.683594 45.765625 42.226562 C 46.023438 41.65625 46.628906 40.699219 47.667969 39.777344 C 47.785156 40.152344 47.867188 40.511719 47.855469 40.851562 C 47.84375 43.101562 46.234375 43.941406 45.265625 44.289062 Z M 45.265625 44.289062 "/>
</g>
</svg>
